<svg xmlns="http://www.w3.org/2000/svg" xmlns:xlink="http://www.w3.org/1999/xlink" xmlns:lucid="lucid" width="1760" height="1360"><g transform="translate(0 0)" lucid:page-tab-id="0_0"><path d="M0 0h1760v1360H0z" fill="#fff"/><path d="M579.04 8c0-4.42 3.58-8 8-8h836.75c4.4 0 8 3.58 8 8v60.3c0 4.4-3.6 8-8 8H587.03c-4.42 0-8-3.6-8-8z" stroke="#000" stroke-opacity="0" stroke-width="2" fill="#fff" fill-opacity="0"/><use xlink:href="#a" transform="matrix(1,0,0,1,583.0426140388017,4) translate(81.16987654320991 38.75152777777778)"/><use xlink:href="#b" transform="matrix(1,0,0,1,583.0426140388017,4) translate(207.69209876543212 38.75152777777778)"/><use xlink:href="#c" transform="matrix(1,0,0,1,583.0426140388017,4) translate(315.3488888888889 38.75152777777778)"/><use xlink:href="#d" transform="matrix(1,0,0,1,583.0426140388017,4) translate(451.92296296296297 38.75152777777778)"/><use xlink:href="#e" transform="matrix(1,0,0,1,583.0426140388017,4) translate(515.876049382716 38.75152777777778)"/><use xlink:href="#f" transform="matrix(1,0,0,1,583.0426140388017,4) translate(626.4464197530865 38.75152777777778)"/><use xlink:href="#g" transform="matrix(1,0,0,1,583.0426140388017,4) translate(678.7451851851852 38.75152777777778)"/><path d="M578.1 65.45c0-4.42 3.57-8 8-8h837.7c4.4 0 8 3.58 8 8v2.84c0 4.4-3.6 8-8 8H586.1c-4.43 0-8-3.6-8-8z" stroke="#000" stroke-opacity="0" stroke-width="2" fill="#fff" fill-opacity="0"/><path d="M840 148c0-4.42 3.58-8 8-8h184c4.42 0 8 3.58 8 8v280c0 4.42-3.58 8-8 8H848c-4.42 0-8-3.58-8-8z" fill="#fff"/><path d="M840 148c0-4.42 3.58-8 8-8h184c4.42 0 8 3.58 8 8v280c0 4.42-3.58 8-8 8H848c-4.42 0-8-3.58-8-8zM840 180h200" stroke="#333" fill="none"/><use xlink:href="#h" transform="matrix(1,0,0,1,850,140) translate(51.55 23.6)"/><use xlink:href="#i" transform="matrix(1,0,0,1,845,182.5) translate(51.574999999999996 17.1)"/><use xlink:href="#j" transform="matrix(1,0,0,1,845,214.5) translate(49.55 17.1)"/><use xlink:href="#k" transform="matrix(1,0,0,1,845,246.5) translate(57.574999999999996 17.1)"/><use xlink:href="#l" transform="matrix(1,0,0,1,845,278.5) translate(70.05 17.1)"/><use xlink:href="#m" transform="matrix(1,0,0,1,845,310.5) translate(50.025 17.1)"/><use xlink:href="#n" transform="matrix(1,0,0,1,845,342.5) translate(36.62499999999999 17.1)"/><use xlink:href="#o" transform="matrix(1,0,0,1,845,374.5) translate(53.099999999999994 17.1)"/><use xlink:href="#p" transform="matrix(1,0,0,1,845,406.5) translate(18.55000000000001 17.1)"/><path d="M820 508c0-4.42 3.58-8 8-8h224c4.42 0 8 3.58 8 8v280c0 4.42-3.58 8-8 8H828c-4.42 0-8-3.58-8-8z" fill="#fff"/><path d="M820 508c0-4.42 3.58-8 8-8h224c4.42 0 8 3.58 8 8v280c0 4.42-3.58 8-8 8H828c-4.42 0-8-3.58-8-8zM820 540h240" stroke="#333" fill="none"/><use xlink:href="#q" transform="matrix(1,0,0,1,830,500) translate(59.074999999999996 23.6)"/><use xlink:href="#r" transform="matrix(1,0,0,1,825,542.5) translate(35.125 17.1)"/><use xlink:href="#s" transform="matrix(1,0,0,1,825,574.5) translate(19.700000000000017 17.1)"/><use xlink:href="#t" transform="matrix(1,0,0,1,825,606.5) translate(44.675 17.1)"/><use xlink:href="#u" transform="matrix(1,0,0,1,825,638.5) translate(17.174999999999997 17.1)"/><use xlink:href="#v" transform="matrix(1,0,0,1,825,670.5) translate(27.700000000000017 17.1)"/><use xlink:href="#w" transform="matrix(1,0,0,1,825,702.5) translate(64.57499999999999 17.1)"/><use xlink:href="#x" transform="matrix(1,0,0,1,825,734.5) translate(52.099999999999994 17.1)"/><use xlink:href="#y" transform="matrix(1,0,0,1,825,766.5) translate(66.07499999999999 17.1)"/><path d="M940 456.5v3.5" stroke="#333" fill="none"/><path d="M930 456.5h20M940 436.5v20" stroke="#333" fill="#fff"/><path d="M930 499.28l10-20 10 20" stroke="#333" fill="#fff" fill-opacity="0"/><path d="M940 499.28v-20M950 469.28c0 5.52-4.48 10-10 10s-10-4.48-10-10c0-5.53 4.48-10 10-10s10 4.47 10 10" stroke="#333" fill="#fff"/><path d="M1180 679.13c0-4.42 3.58-8 8-8h224c4.42 0 8 3.58 8 8v88c0 4.4-3.58 8-8 8h-224c-4.42 0-8-3.6-8-8z" fill="#fff"/><path d="M1180 679.13c0-4.42 3.58-8 8-8h224c4.42 0 8 3.58 8 8v88c0 4.4-3.58 8-8 8h-224c-4.42 0-8-3.6-8-8zM1180 711.13h240" stroke="#333" fill="none"/><use xlink:href="#z" transform="matrix(1,0,0,1,1190,671.1250090381982) translate(51.05 23.6)"/><use xlink:href="#A" transform="matrix(1,0,0,1,1185,713.6250090381982) translate(49.57499999999999 17.1)"/><use xlink:href="#B" transform="matrix(1,0,0,1,1185,745.6250090381982) translate(13.174999999999997 17.1)"/><path d="M1420 148c0-4.42 3.58-8 8-8h184c4.42 0 8 3.58 8 8v88c0 4.42-3.58 8-8 8h-184c-4.42 0-8-3.58-8-8z" fill="#fff"/><path d="M1420 148c0-4.42 3.58-8 8-8h184c4.42 0 8 3.58 8 8v88c0 4.42-3.58 8-8 8h-184c-4.42 0-8-3.58-8-8zM1420 180h200" stroke="#333" fill="none"/><use xlink:href="#C" transform="matrix(1,0,0,1,1430,140) translate(37.62499999999999 23.6)"/><use xlink:href="#D" transform="matrix(1,0,0,1,1425,182.5) translate(38.14999999999999 17.1)"/><use xlink:href="#E" transform="matrix(1,0,0,1,1425,214.5) translate(33.14999999999999 17.1)"/><path d="M1200 308.36c0-4.42 3.58-8 8-8h184c4.42 0 8 3.58 8 8v88c0 4.42-3.58 8-8 8h-184c-4.42 0-8-3.58-8-8z" fill="#fff"/><path d="M1200 308.36c0-4.42 3.58-8 8-8h184c4.42 0 8 3.58 8 8v88c0 4.42-3.58 8-8 8h-184c-4.42 0-8-3.58-8-8zM1200 340.36h200" stroke="#333" fill="none"/><use xlink:href="#F" transform="matrix(1,0,0,1,1210,300.36000000000007) translate(58.025 23.6)"/><use xlink:href="#G" transform="matrix(1,0,0,1,1205,342.86000000000007) translate(39.074999999999996 17.1)"/><use xlink:href="#H" transform="matrix(1,0,0,1,1205,374.86000000000007) translate(34.074999999999996 17.1)"/><path d="M1060.5 356h59.3c.1 0 .2.1.2.2 0 .13.1.22.2.22h59.3" stroke="#333" fill="none"/><path d="M1060.5 366v-20M1040.5 356h20" stroke="#333" fill="#fff"/><path d="M1199.28 366.42l-20-10 20-10" stroke="#333" fill="#fff" fill-opacity="0"/><path d="M1199.28 356.42h-20M1179.28 346.42v20" stroke="#333" fill="#fff"/><path d="M1300 424.86v225.77" stroke="#333" fill="none"/><path d="M1290 424.86h20M1300 404.86v20" stroke="#333" fill="#fff"/><path d="M1290 670.4l10-20 10 20" stroke="#333" fill="#fff" fill-opacity="0"/><path d="M1300 670.4v-20M1310 650.4h-20" stroke="#333" fill="#fff"/><path d="M1060.5 196H1380" stroke="#333" fill="none"/><path d="M1060.5 206v-20M1040.5 196h20" stroke="#333" fill="#fff"/><path d="M1419.28 206l-20-10 20-10" stroke="#333" fill="#fff" fill-opacity="0"/><path d="M1419.28 196h-20M1399.28 196c0 5.52-4.48 10-10 10-5.53 0-10-4.48-10-10s4.47-10 10-10c5.52 0 10 4.48 10 10" stroke="#333" fill="#fff"/><path d="M400 148c0-4.42 3.58-8 8-8h184c4.42 0 8 3.58 8 8v120c0 4.42-3.58 8-8 8H408c-4.42 0-8-3.58-8-8z" fill="#fff"/><path d="M400 148c0-4.42 3.58-8 8-8h184c4.42 0 8 3.58 8 8v120c0 4.42-3.58 8-8 8H408c-4.42 0-8-3.58-8-8zM400 180h200" stroke="#333" fill="none"/><use xlink:href="#I" transform="matrix(1,0,0,1,410,140) translate(23.07499999999999 23.6)"/><use xlink:href="#r" transform="matrix(1,0,0,1,405,182.5) translate(15.125 17.1)"/><use xlink:href="#J" transform="matrix(1,0,0,1,405,214.5) translate(46.05 17.1)"/><use xlink:href="#K" transform="matrix(1,0,0,1,405,246.5) translate(31.525 17.1)"/><path d="M819.5 196h-199" stroke="#333" fill="none"/><path d="M819.5 186v20M839.5 196h-20" stroke="#333" fill="#fff"/><path d="M600.72 186l20 10-20 10" stroke="#333" fill="#fff" fill-opacity="0"/><path d="M600.72 196h20M620.72 206v-20" stroke="#333" fill="#fff"/><defs><path fill="#333" d="M24-248c120-7 223 5 221 122C244-46 201 0 124 0H24v-248zM76-40c74 7 117-18 117-86 0-67-45-88-117-82v168" id="L"/><path fill="#333" d="M133-34C117-15 103 5 69 4 32 3 11-16 11-54c-1-60 55-63 116-61 1-26-3-47-28-47-18 1-26 9-28 27l-52-2c7-38 36-58 82-57s74 22 75 68l1 82c-1 14 12 18 25 15v27c-30 8-71 5-69-32zm-48 3c29 0 43-24 42-57-32 0-66-3-65 30 0 17 8 27 23 27" id="M"/><path fill="#333" d="M115-3C79 11 28 4 28-45v-112H4v-33h27l15-45h31v45h36v33H77v99c-1 23 16 31 38 25v30" id="N"/><path fill="#333" d="M182-130c37 4 62 22 62 59C244 23 116-4 24 0v-248c84 5 203-23 205 63 0 31-19 50-47 55zM76-148c40-3 101 13 101-30 0-44-60-28-101-31v61zm0 110c48-3 116 14 116-37 0-48-69-32-116-35v72" id="O"/><path fill="#333" d="M137-138c1-29-70-34-71-4 15 46 118 7 119 86 1 83-164 76-172 9l43-7c4 19 20 25 44 25 33 8 57-30 24-41C81-84 22-81 20-136c-2-80 154-74 161-7" id="P"/><path fill="#333" d="M185-48c-13 30-37 53-82 52C43 2 14-33 14-96s30-98 90-98c62 0 83 45 84 108H66c0 31 8 55 39 56 18 0 30-7 34-22zm-45-69c5-46-57-63-70-21-2 6-4 13-4 21h74" id="Q"/><g id="a"><use transform="matrix(0.0728395061728395,0,0,0.0728395061728395,0,0)" xlink:href="#L"/><use transform="matrix(0.0728395061728395,0,0,0.0728395061728395,18.86543209876543,0)" xlink:href="#M"/><use transform="matrix(0.0728395061728395,0,0,0.0728395061728395,33.43333333333333,0)" xlink:href="#N"/><use transform="matrix(0.0728395061728395,0,0,0.0728395061728395,42.10123456790124,0)" xlink:href="#M"/><use transform="matrix(0.0728395061728395,0,0,0.0728395061728395,56.66913580246913,0)" xlink:href="#O"/><use transform="matrix(0.0728395061728395,0,0,0.0728395061728395,75.53456790123457,0)" xlink:href="#M"/><use transform="matrix(0.0728395061728395,0,0,0.0728395061728395,90.10246913580247,0)" xlink:href="#P"/><use transform="matrix(0.0728395061728395,0,0,0.0728395061728395,104.67037037037036,0)" xlink:href="#Q"/></g><path fill="#333" d="M169-182c-1-43-94-46-97-3 18 66 151 10 154 114 3 95-165 93-204 36-6-8-10-19-12-30l50-8c3 46 112 56 116 5-17-69-150-10-154-114-4-87 153-88 188-35 5 8 8 18 10 28" id="R"/><path fill="#333" d="M147 0L96-86 75-71V0H25v-261h50v150l67-79h53l-66 74L201 0h-54" id="S"/><path fill="#333" d="M110-194c64 0 96 36 96 99 0 64-35 99-97 99-61 0-95-36-95-99 0-62 34-99 96-99zm-1 164c35 0 45-28 45-65 0-40-10-65-43-65-34 0-45 26-45 65 0 36 10 65 43 65" id="T"/><path fill="#333" d="M25 0v-261h50V0H25" id="U"/><path fill="#333" d="M114-157C55-157 80-60 75 0H25v-261h50l-1 109c12-26 28-41 61-42 86-1 58 113 63 194h-50c-7-57 23-157-34-157" id="V"/><g id="b"><use transform="matrix(0.0728395061728395,0,0,0.0728395061728395,0,0)" xlink:href="#R"/><use transform="matrix(0.0728395061728395,0,0,0.0728395061728395,17.48148148148148,0)" xlink:href="#Q"/><use transform="matrix(0.0728395061728395,0,0,0.0728395061728395,32.04938271604938,0)" xlink:href="#S"/><use transform="matrix(0.0728395061728395,0,0,0.0728395061728395,46.61728395061728,0)" xlink:href="#T"/><use transform="matrix(0.0728395061728395,0,0,0.0728395061728395,62.56913580246913,0)" xlink:href="#U"/><use transform="matrix(0.0728395061728395,0,0,0.0728395061728395,69.85308641975308,0)" xlink:href="#M"/><use transform="matrix(0.0728395061728395,0,0,0.0728395061728395,84.42098765432098,0)" xlink:href="#V"/></g><path fill="#333" d="M230 0l2-204L168 0h-37L68-204 70 0H24v-248h70l56 185 57-185h69V0h-46" id="W"/><path fill="#333" d="M135-194c87-1 58 113 63 194h-50c-7-57 23-157-34-157-59 0-34 97-39 157H25l-1-190h47c2 12-1 28 3 38 12-26 28-41 61-42" id="X"/><path fill="#333" d="M195-6C206 82 75 100 31 46c-4-6-6-13-8-21l49-6c3 16 16 24 34 25 40 0 42-37 40-79-11 22-30 35-61 35-53 0-70-43-70-97 0-56 18-96 73-97 30 0 46 14 59 34l2-30h47zm-90-29c32 0 41-27 41-63 0-35-9-62-40-62-32 0-39 29-40 63 0 36 9 62 39 62" id="Y"/><g id="c"><use transform="matrix(0.0728395061728395,0,0,0.0728395061728395,0,0)" xlink:href="#W"/><use transform="matrix(0.0728395061728395,0,0,0.0728395061728395,21.77901234567901,0)" xlink:href="#Q"/><use transform="matrix(0.0728395061728395,0,0,0.0728395061728395,36.34691358024691,0)" xlink:href="#X"/><use transform="matrix(0.0728395061728395,0,0,0.0728395061728395,52.29876543209876,0)" xlink:href="#Q"/><use transform="matrix(0.0728395061728395,0,0,0.0728395061728395,66.86666666666666,0)" xlink:href="#X"/><use transform="matrix(0.0728395061728395,0,0,0.0728395061728395,82.81851851851852,0)" xlink:href="#Y"/><use transform="matrix(0.0728395061728395,0,0,0.0728395061728395,98.77037037037037,0)" xlink:href="#M"/><use transform="matrix(0.0728395061728395,0,0,0.0728395061728395,113.33827160493827,0)" xlink:href="#V"/></g><path fill="#333" d="M199 0l-22-63H83L61 0H9l90-248h61L250 0h-51zm-33-102l-36-108c-10 38-24 72-36 108h72" id="Z"/><g id="d"><use transform="matrix(0.0728395061728395,0,0,0.0728395061728395,0,0)" xlink:href="#Z"/><use transform="matrix(0.0728395061728395,0,0,0.0728395061728395,18.86543209876543,0)" xlink:href="#N"/><use transform="matrix(0.0728395061728395,0,0,0.0728395061728395,27.53333333333333,0)" xlink:href="#M"/><use transform="matrix(0.0728395061728395,0,0,0.0728395061728395,42.10123456790124,0)" xlink:href="#P"/></g><path fill="#333" d="M24-248c93 1 206-16 204 79-1 75-69 88-152 82V0H24v-248zm52 121c47 0 100 7 100-41 0-47-54-39-100-39v80" id="aa"/><path fill="#333" d="M135-150c-39-12-60 13-60 57V0H25l-1-190h47c2 13-1 29 3 40 6-28 27-53 61-41v41" id="ab"/><path fill="#333" d="M128 0H69L1-190h53L99-40l48-150h52" id="ac"/><path fill="#333" d="M25-224v-37h50v37H25zM25 0v-190h50V0H25" id="ad"/><g id="e"><use transform="matrix(0.0728395061728395,0,0,0.0728395061728395,0,0)" xlink:href="#aa"/><use transform="matrix(0.0728395061728395,0,0,0.0728395061728395,17.48148148148148,0)" xlink:href="#ab"/><use transform="matrix(0.0728395061728395,0,0,0.0728395061728395,27.679012345679013,0)" xlink:href="#T"/><use transform="matrix(0.0728395061728395,0,0,0.0728395061728395,43.63086419753086,0)" xlink:href="#ac"/><use transform="matrix(0.0728395061728395,0,0,0.0728395061728395,58.19876543209875,0)" xlink:href="#ad"/><use transform="matrix(0.0728395061728395,0,0,0.0728395061728395,65.48271604938272,0)" xlink:href="#X"/><use transform="matrix(0.0728395061728395,0,0,0.0728395061728395,81.43456790123457,0)" xlink:href="#P"/><use transform="matrix(0.0728395061728395,0,0,0.0728395061728395,96.00246913580247,0)" xlink:href="#ad"/></g><path fill="#333" d="M195 0l-88-114-31 24V0H24v-248h52v113l112-113h60L142-143 257 0h-62" id="ae"/><path fill="#333" d="M24 0v-248h52V0H24" id="af"/><g id="f"><use transform="matrix(0.0728395061728395,0,0,0.0728395061728395,0,0)" xlink:href="#L"/><use transform="matrix(0.0728395061728395,0,0,0.0728395061728395,18.86543209876543,0)" xlink:href="#ae"/><use transform="matrix(0.0728395061728395,0,0,0.0728395061728395,37.73086419753086,0)" xlink:href="#af"/></g><path fill="#333" d="M176-78C186 10 51 31 16-35c-5-9-9-19-11-32l52-8c4 21 12 37 35 38 23 0 32-16 32-40v-130H75v-41h101v170" id="ag"/><g id="g"><use transform="matrix(0.0728395061728395,0,0,0.0728395061728395,0,0)" xlink:href="#ag"/><use transform="matrix(0.0728395061728395,0,0,0.0728395061728395,14.5679012345679,0)" xlink:href="#M"/><use transform="matrix(0.0728395061728395,0,0,0.0728395061728395,29.1358024691358,0)" xlink:href="#S"/><use transform="matrix(0.0728395061728395,0,0,0.0728395061728395,43.7037037037037,0)" xlink:href="#M"/><use transform="matrix(0.0728395061728395,0,0,0.0728395061728395,58.2716049382716,0)" xlink:href="#ab"/><use transform="matrix(0.0728395061728395,0,0,0.0728395061728395,68.46913580246913,0)" xlink:href="#N"/><use transform="matrix(0.0728395061728395,0,0,0.0728395061728395,77.13703703703703,0)" xlink:href="#M"/></g><path fill="#333" d="M30-248c118-7 216 8 213 122C240-48 200 0 122 0H30v-248zM63-27c89 8 146-16 146-99s-60-101-146-95v194" id="ah"/><path fill="#333" d="M141-36C126-15 110 5 73 4 37 3 15-17 15-53c-1-64 63-63 125-63 3-35-9-54-41-54-24 1-41 7-42 31l-33-3c5-37 33-52 76-52 45 0 72 20 72 64v82c-1 20 7 32 28 27v20c-31 9-61-2-59-35zM48-53c0 20 12 33 32 33 41-3 63-29 60-74-43 2-92-5-92 41" id="ai"/><path fill="#333" d="M59-47c-2 24 18 29 38 22v24C64 9 27 4 27-40v-127H5v-23h24l9-43h21v43h35v23H59v120" id="aj"/><path fill="#333" d="M185-189c-5-48-123-54-124 2 14 75 158 14 163 119 3 78-121 87-175 55-17-10-28-26-33-46l33-7c5 56 141 63 141-1 0-78-155-14-162-118-5-82 145-84 179-34 5 7 8 16 11 25" id="ak"/><path fill="#333" d="M240 0l2-218c-23 76-54 145-80 218h-23L58-218 59 0H30v-248h44l77 211c21-75 51-140 76-211h43V0h-30" id="al"/><path fill="#333" d="M205 0l-28-72H64L36 0H1l101-248h38L239 0h-34zm-38-99l-47-123c-12 45-31 82-46 123h93" id="am"/><g id="h"><use transform="matrix(0.05,0,0,0.05,0,0)" xlink:href="#ah"/><use transform="matrix(0.05,0,0,0.05,12.950000000000001,0)" xlink:href="#ai"/><use transform="matrix(0.05,0,0,0.05,22.950000000000003,0)" xlink:href="#aj"/><use transform="matrix(0.05,0,0,0.05,27.950000000000003,0)" xlink:href="#ai"/><use transform="matrix(0.05,0,0,0.05,37.95,0)" xlink:href="#ak"/><use transform="matrix(0.05,0,0,0.05,49.95,0)" xlink:href="#al"/><use transform="matrix(0.05,0,0,0.05,64.9,0)" xlink:href="#am"/></g><path fill="#333" d="M190 0L58-211 59 0H30v-248h39L202-35l-2-213h31V0h-41" id="an"/><path fill="#333" d="M210-169c-67 3-38 105-44 169h-31v-121c0-29-5-50-35-48C34-165 62-65 56 0H25l-1-190h30c1 10-1 24 2 32 10-44 99-50 107 0 11-21 27-35 58-36 85-2 47 119 55 194h-31v-121c0-29-5-49-35-48" id="ao"/><g id="i"><use transform="matrix(0.05,0,0,0.05,0,0)" xlink:href="#an"/><use transform="matrix(0.05,0,0,0.05,12.950000000000001,0)" xlink:href="#ai"/><use transform="matrix(0.05,0,0,0.05,22.950000000000003,0)" xlink:href="#ao"/><use transform="matrix(0.05,0,0,0.05,37.900000000000006,0)" xlink:href="#ai"/><use transform="matrix(0.05,0,0,0.05,47.900000000000006,0)" xlink:href="#ak"/><use transform="matrix(0.05,0,0,0.05,59.900000000000006,0)" xlink:href="#al"/><use transform="matrix(0.05,0,0,0.05,74.85000000000001,0)" xlink:href="#am"/></g><path fill="#333" d="M30 0v-248h33v221h125V0H30" id="ap"/><path fill="#333" d="M100-194c62-1 85 37 85 99 1 63-27 99-86 99S16-35 15-95c0-66 28-99 85-99zM99-20c44 1 53-31 53-75 0-43-8-75-51-75s-53 32-53 75 10 74 51 75" id="aq"/><path fill="#333" d="M143 0L79-87 56-68V0H24v-261h32v163l83-92h37l-77 82L181 0h-38" id="ar"/><path fill="#333" d="M135-143c-3-34-86-38-87 0 15 53 115 12 119 90S17 21 10-45l28-5c4 36 97 45 98 0-10-56-113-15-118-90-4-57 82-63 122-42 12 7 21 19 24 35" id="as"/><path fill="#333" d="M24-231v-30h32v30H24zM24 0v-190h32V0H24" id="at"/><g id="j"><use transform="matrix(0.05,0,0,0.05,0,0)" xlink:href="#ap"/><use transform="matrix(0.05,0,0,0.05,10,0)" xlink:href="#aq"/><use transform="matrix(0.05,0,0,0.05,20,0)" xlink:href="#ar"/><use transform="matrix(0.05,0,0,0.05,29,0)" xlink:href="#ai"/><use transform="matrix(0.05,0,0,0.05,39,0)" xlink:href="#as"/><use transform="matrix(0.05,0,0,0.05,48,0)" xlink:href="#at"/><use transform="matrix(0.05,0,0,0.05,51.95,0)" xlink:href="#ak"/><use transform="matrix(0.05,0,0,0.05,63.95,0)" xlink:href="#al"/><use transform="matrix(0.05,0,0,0.05,78.9,0)" xlink:href="#am"/></g><path fill="#333" d="M232-93c-1 65-40 97-104 97C67 4 28-28 28-90v-158h33c8 89-33 224 67 224 102 0 64-133 71-224h33v155" id="au"/><path fill="#333" d="M233-177c-1 41-23 64-60 70L243 0h-38l-65-103H63V0H30v-248c88 3 205-21 203 71zM63-129c60-2 137 13 137-47 0-61-80-42-137-45v92" id="av"/><g id="k"><use transform="matrix(0.05,0,0,0.05,0,0)" xlink:href="#au"/><use transform="matrix(0.05,0,0,0.05,12.950000000000001,0)" xlink:href="#av"/><use transform="matrix(0.05,0,0,0.05,25.900000000000002,0)" xlink:href="#ap"/><use transform="matrix(0.05,0,0,0.05,35.900000000000006,0)" xlink:href="#ak"/><use transform="matrix(0.05,0,0,0.05,47.900000000000006,0)" xlink:href="#al"/><use transform="matrix(0.05,0,0,0.05,62.85,0)" xlink:href="#am"/></g><path fill="#333" d="M30-248c87 1 191-15 191 75 0 78-77 80-158 76V0H30v-248zm33 125c57 0 124 11 124-50 0-59-68-47-124-48v98" id="aw"/><g id="l"><use transform="matrix(0.05,0,0,0.05,0,0)" xlink:href="#an"/><use transform="matrix(0.05,0,0,0.05,12.950000000000001,0)" xlink:href="#aw"/><use transform="matrix(0.05,0,0,0.05,24.950000000000003,0)" xlink:href="#ak"/><use transform="matrix(0.05,0,0,0.05,36.95,0)" xlink:href="#an"/></g><path fill="#333" d="M84 4C-5 8 30-112 23-190h32v120c0 31 7 50 39 49 72-2 45-101 50-169h31l1 190h-30c-1-10 1-25-2-33-11 22-28 36-60 37" id="ax"/><g id="m"><use transform="matrix(0.05,0,0,0.05,0,0)" xlink:href="#ak"/><use transform="matrix(0.05,0,0,0.05,12,0)" xlink:href="#aj"/><use transform="matrix(0.05,0,0,0.05,17,0)" xlink:href="#ai"/><use transform="matrix(0.05,0,0,0.05,27,0)" xlink:href="#aj"/><use transform="matrix(0.05,0,0,0.05,32,0)" xlink:href="#ax"/><use transform="matrix(0.05,0,0,0.05,42,0)" xlink:href="#as"/><use transform="matrix(0.05,0,0,0.05,51,0)" xlink:href="#ak"/><use transform="matrix(0.05,0,0,0.05,63,0)" xlink:href="#al"/><use transform="matrix(0.05,0,0,0.05,77.95,0)" xlink:href="#am"/></g><path fill="#333" d="M114-163C36-179 61-72 57 0H25l-1-190h30c1 12-1 29 2 39 6-27 23-49 58-41v29" id="ay"/><path fill="#333" d="M127-220V0H93v-220H8v-28h204v28h-85" id="az"/><path fill="#333" d="M100-194c63 0 86 42 84 106H49c0 40 14 67 53 68 26 1 43-12 49-29l28 8c-11 28-37 45-77 45C44 4 14-33 15-96c1-61 26-98 85-98zm52 81c6-60-76-77-97-28-3 7-6 17-6 28h103" id="aA"/><path fill="#333" d="M24 0v-261h32V0H24" id="aB"/><path fill="#333" d="M115-194c55 1 70 41 70 98S169 2 115 4C84 4 66-9 55-30l1 105H24l-1-265h31l2 30c10-21 28-34 59-34zm-8 174c40 0 45-34 45-75s-6-73-45-74c-42 0-51 32-51 76 0 43 10 73 51 73" id="aC"/><path fill="#333" d="M117-194c89-4 53 116 60 194h-32v-121c0-31-8-49-39-48C34-167 62-67 57 0H25l-1-190h30c1 10-1 24 2 32 11-22 29-35 61-36" id="aD"/><g id="n"><use transform="matrix(0.05,0,0,0.05,0,0)" xlink:href="#an"/><use transform="matrix(0.05,0,0,0.05,12.950000000000001,0)" xlink:href="#aq"/><use transform="matrix(0.05,0,0,0.05,22.950000000000003,0)" xlink:href="#ao"/><use transform="matrix(0.05,0,0,0.05,37.900000000000006,0)" xlink:href="#aq"/><use transform="matrix(0.05,0,0,0.05,47.900000000000006,0)" xlink:href="#ay"/><use transform="matrix(0.05,0,0,0.05,53.85,0)" xlink:href="#az"/><use transform="matrix(0.05,0,0,0.05,62.80000000000001,0)" xlink:href="#aA"/><use transform="matrix(0.05,0,0,0.05,72.80000000000001,0)" xlink:href="#aB"/><use transform="matrix(0.05,0,0,0.05,76.75000000000001,0)" xlink:href="#aA"/><use transform="matrix(0.05,0,0,0.05,86.75000000000001,0)" xlink:href="#aC"/><use transform="matrix(0.05,0,0,0.05,96.75000000000001,0)" xlink:href="#aq"/><use transform="matrix(0.05,0,0,0.05,106.75,0)" xlink:href="#aD"/></g><path fill="#333" d="M30 0v-248h187v28H63v79h144v27H63v87h162V0H30" id="aE"/><g id="o"><use transform="matrix(0.05,0,0,0.05,0,0)" xlink:href="#aE"/><use transform="matrix(0.05,0,0,0.05,12,0)" xlink:href="#ao"/><use transform="matrix(0.05,0,0,0.05,26.950000000000003,0)" xlink:href="#ai"/><use transform="matrix(0.05,0,0,0.05,36.95,0)" xlink:href="#at"/><use transform="matrix(0.05,0,0,0.05,40.900000000000006,0)" xlink:href="#aB"/><use transform="matrix(0.05,0,0,0.05,44.85000000000001,0)" xlink:href="#ak"/><use transform="matrix(0.05,0,0,0.05,56.85,0)" xlink:href="#al"/><use transform="matrix(0.05,0,0,0.05,71.80000000000001,0)" xlink:href="#am"/></g><path fill="#333" d="M106-169C34-169 62-67 57 0H25v-261h32l-1 103c12-21 28-36 61-36 89 0 53 116 60 194h-32v-121c2-32-8-49-39-48" id="aF"/><g id="p"><use transform="matrix(0.05,0,0,0.05,0,0)" xlink:href="#ap"/><use transform="matrix(0.05,0,0,0.05,10,0)" xlink:href="#ax"/><use transform="matrix(0.05,0,0,0.05,20,0)" xlink:href="#ai"/><use transform="matrix(0.05,0,0,0.05,30,0)" xlink:href="#as"/><use transform="matrix(0.05,0,0,0.05,39,0)" xlink:href="#az"/><use transform="matrix(0.05,0,0,0.05,47.95,0)" xlink:href="#ai"/><use transform="matrix(0.05,0,0,0.05,57.95,0)" xlink:href="#aD"/><use transform="matrix(0.05,0,0,0.05,67.95,0)" xlink:href="#ai"/><use transform="matrix(0.05,0,0,0.05,77.95,0)" xlink:href="#aF"/><use transform="matrix(0.05,0,0,0.05,87.95,0)" xlink:href="#ak"/><use transform="matrix(0.05,0,0,0.05,99.95,0)" xlink:href="#aA"/><use transform="matrix(0.05,0,0,0.05,109.95,0)" xlink:href="#ar"/><use transform="matrix(0.05,0,0,0.05,118.95,0)" xlink:href="#aq"/><use transform="matrix(0.05,0,0,0.05,128.95,0)" xlink:href="#aB"/><use transform="matrix(0.05,0,0,0.05,132.89999999999998,0)" xlink:href="#ai"/><use transform="matrix(0.05,0,0,0.05,142.89999999999998,0)" xlink:href="#aF"/></g><g id="q"><use transform="matrix(0.05,0,0,0.05,0,0)" xlink:href="#ak"/><use transform="matrix(0.05,0,0,0.05,12,0)" xlink:href="#aj"/><use transform="matrix(0.05,0,0,0.05,17,0)" xlink:href="#ai"/><use transform="matrix(0.05,0,0,0.05,27,0)" xlink:href="#aj"/><use transform="matrix(0.05,0,0,0.05,32,0)" xlink:href="#at"/><use transform="matrix(0.05,0,0,0.05,35.95,0)" xlink:href="#as"/><use transform="matrix(0.05,0,0,0.05,44.95,0)" xlink:href="#aj"/><use transform="matrix(0.05,0,0,0.05,49.95,0)" xlink:href="#at"/><use transform="matrix(0.05,0,0,0.05,53.900000000000006,0)" xlink:href="#ar"/><use transform="matrix(0.05,0,0,0.05,62.900000000000006,0)" xlink:href="#ak"/><use transform="matrix(0.05,0,0,0.05,74.9,0)" xlink:href="#al"/><use transform="matrix(0.05,0,0,0.05,89.85000000000001,0)" xlink:href="#am"/></g><path fill="#333" d="M115-194c53 0 69 39 70 98 0 66-23 100-70 100C84 3 66-7 56-30L54 0H23l1-261h32v101c10-23 28-34 59-34zm-8 174c40 0 45-34 45-75 0-40-5-75-45-74-42 0-51 32-51 76 0 43 10 73 51 73" id="aG"/><path fill="#333" d="M24-231v-30h32v30H24zM-9 49c24 4 33-6 33-30v-209h32V24c2 40-23 58-65 49V49" id="aH"/><g id="r"><use transform="matrix(0.05,0,0,0.05,0,0)" xlink:href="#az"/><use transform="matrix(0.05,0,0,0.05,8.950000000000001,0)" xlink:href="#ai"/><use transform="matrix(0.05,0,0,0.05,18.950000000000003,0)" xlink:href="#aF"/><use transform="matrix(0.05,0,0,0.05,28.950000000000003,0)" xlink:href="#ax"/><use transform="matrix(0.05,0,0,0.05,38.95,0)" xlink:href="#aD"/><use transform="matrix(0.05,0,0,0.05,48.95,0)" xlink:href="#aw"/><use transform="matrix(0.05,0,0,0.05,60.95,0)" xlink:href="#aA"/><use transform="matrix(0.05,0,0,0.05,70.95,0)" xlink:href="#ao"/><use transform="matrix(0.05,0,0,0.05,85.9,0)" xlink:href="#aG"/><use transform="matrix(0.05,0,0,0.05,95.9,0)" xlink:href="#aA"/><use transform="matrix(0.05,0,0,0.05,105.9,0)" xlink:href="#aB"/><use transform="matrix(0.05,0,0,0.05,109.85000000000001,0)" xlink:href="#ai"/><use transform="matrix(0.05,0,0,0.05,119.85000000000001,0)" xlink:href="#aH"/><use transform="matrix(0.05,0,0,0.05,123.80000000000001,0)" xlink:href="#ai"/><use transform="matrix(0.05,0,0,0.05,133.8,0)" xlink:href="#ay"/><use transform="matrix(0.05,0,0,0.05,139.75,0)" xlink:href="#ai"/><use transform="matrix(0.05,0,0,0.05,149.75,0)" xlink:href="#aD"/></g><path fill="#333" d="M194 0L95-120 63-95V0H30v-248h33v124l119-124h40L117-140 236 0h-42" id="aI"/><g id="s"><use transform="matrix(0.05,0,0,0.05,0,0)" xlink:href="#aI"/><use transform="matrix(0.05,0,0,0.05,12,0)" xlink:href="#ax"/><use transform="matrix(0.05,0,0,0.05,22,0)" xlink:href="#ay"/><use transform="matrix(0.05,0,0,0.05,27.950000000000003,0)" xlink:href="#at"/><use transform="matrix(0.05,0,0,0.05,31.899999999999995,0)" xlink:href="#ar"/><use transform="matrix(0.05,0,0,0.05,40.9,0)" xlink:href="#ax"/><use transform="matrix(0.05,0,0,0.05,50.9,0)" xlink:href="#aB"/><use transform="matrix(0.05,0,0,0.05,54.85,0)" xlink:href="#ax"/><use transform="matrix(0.05,0,0,0.05,64.85,0)" xlink:href="#ao"/><use transform="matrix(0.05,0,0,0.05,79.8,0)" xlink:href="#aw"/><use transform="matrix(0.05,0,0,0.05,91.8,0)" xlink:href="#aA"/><use transform="matrix(0.05,0,0,0.05,101.8,0)" xlink:href="#ao"/><use transform="matrix(0.05,0,0,0.05,116.75,0)" xlink:href="#aG"/><use transform="matrix(0.05,0,0,0.05,126.75,0)" xlink:href="#aA"/><use transform="matrix(0.05,0,0,0.05,136.75,0)" xlink:href="#aB"/><use transform="matrix(0.05,0,0,0.05,140.7,0)" xlink:href="#ai"/><use transform="matrix(0.05,0,0,0.05,150.7,0)" xlink:href="#aH"/><use transform="matrix(0.05,0,0,0.05,154.64999999999998,0)" xlink:href="#ai"/><use transform="matrix(0.05,0,0,0.05,164.64999999999998,0)" xlink:href="#ay"/><use transform="matrix(0.05,0,0,0.05,170.59999999999997,0)" xlink:href="#ai"/><use transform="matrix(0.05,0,0,0.05,180.59999999999997,0)" xlink:href="#aD"/></g><path fill="#333" d="M153-248C145-148 188 4 80 4 36 3 13-21 6-62l32-5c4 25 16 42 43 43 27 0 39-20 39-49v-147H72v-28h81" id="aJ"/><path fill="#333" d="M85-194c31 0 48 13 60 33l-1-100h32l1 261h-30c-2-10 0-23-3-31C134-8 116 4 85 4 32 4 16-35 15-94c0-66 23-100 70-100zm9 24c-40 0-46 34-46 75 0 40 6 74 45 74 42 0 51-32 51-76 0-42-9-74-50-73" id="aK"/><g id="t"><use transform="matrix(0.05,0,0,0.05,0,0)" xlink:href="#aJ"/><use transform="matrix(0.05,0,0,0.05,9,0)" xlink:href="#ax"/><use transform="matrix(0.05,0,0,0.05,19,0)" xlink:href="#ao"/><use transform="matrix(0.05,0,0,0.05,33.95,0)" xlink:href="#aB"/><use transform="matrix(0.05,0,0,0.05,37.900000000000006,0)" xlink:href="#ai"/><use transform="matrix(0.05,0,0,0.05,47.900000000000006,0)" xlink:href="#aF"/><use transform="matrix(0.05,0,0,0.05,57.900000000000006,0)" xlink:href="#al"/><use transform="matrix(0.05,0,0,0.05,72.85000000000001,0)" xlink:href="#ax"/><use transform="matrix(0.05,0,0,0.05,82.85000000000001,0)" xlink:href="#ay"/><use transform="matrix(0.05,0,0,0.05,88.80000000000001,0)" xlink:href="#at"/><use transform="matrix(0.05,0,0,0.05,92.75000000000001,0)" xlink:href="#aK"/><use transform="matrix(0.05,0,0,0.05,102.75,0)" xlink:href="#az"/><use transform="matrix(0.05,0,0,0.05,111.7,0)" xlink:href="#aq"/><use transform="matrix(0.05,0,0,0.05,121.7,0)" xlink:href="#aj"/><use transform="matrix(0.05,0,0,0.05,126.7,0)" xlink:href="#ai"/><use transform="matrix(0.05,0,0,0.05,136.70000000000002,0)" xlink:href="#aB"/></g><g id="u"><use transform="matrix(0.05,0,0,0.05,0,0)" xlink:href="#aJ"/><use transform="matrix(0.05,0,0,0.05,9,0)" xlink:href="#ax"/><use transform="matrix(0.05,0,0,0.05,19,0)" xlink:href="#ao"/><use transform="matrix(0.05,0,0,0.05,33.95,0)" xlink:href="#aB"/><use transform="matrix(0.05,0,0,0.05,37.900000000000006,0)" xlink:href="#ai"/><use transform="matrix(0.05,0,0,0.05,47.900000000000006,0)" xlink:href="#aF"/><use transform="matrix(0.05,0,0,0.05,57.900000000000006,0)" xlink:href="#al"/><use transform="matrix(0.05,0,0,0.05,72.85000000000001,0)" xlink:href="#ax"/><use transform="matrix(0.05,0,0,0.05,82.85000000000001,0)" xlink:href="#ay"/><use transform="matrix(0.05,0,0,0.05,88.80000000000001,0)" xlink:href="#at"/><use transform="matrix(0.05,0,0,0.05,92.75000000000001,0)" xlink:href="#aK"/><use transform="matrix(0.05,0,0,0.05,102.75,0)" xlink:href="#aw"/><use transform="matrix(0.05,0,0,0.05,114.75,0)" xlink:href="#aA"/><use transform="matrix(0.05,0,0,0.05,124.75,0)" xlink:href="#ay"/><use transform="matrix(0.05,0,0,0.05,130.70000000000002,0)" xlink:href="#aA"/><use transform="matrix(0.05,0,0,0.05,140.70000000000002,0)" xlink:href="#ao"/><use transform="matrix(0.05,0,0,0.05,155.65,0)" xlink:href="#aC"/><use transform="matrix(0.05,0,0,0.05,165.65,0)" xlink:href="#ax"/><use transform="matrix(0.05,0,0,0.05,175.65,0)" xlink:href="#ai"/><use transform="matrix(0.05,0,0,0.05,185.65,0)" xlink:href="#aD"/></g><path fill="#333" d="M16-82v-28h88v28H16" id="aL"/><g id="v"><use transform="matrix(0.05,0,0,0.05,0,0)" xlink:href="#aJ"/><use transform="matrix(0.05,0,0,0.05,9,0)" xlink:href="#ax"/><use transform="matrix(0.05,0,0,0.05,19,0)" xlink:href="#ao"/><use transform="matrix(0.05,0,0,0.05,33.95,0)" xlink:href="#aB"/><use transform="matrix(0.05,0,0,0.05,37.900000000000006,0)" xlink:href="#ai"/><use transform="matrix(0.05,0,0,0.05,47.900000000000006,0)" xlink:href="#aF"/><use transform="matrix(0.05,0,0,0.05,57.900000000000006,0)" xlink:href="#al"/><use transform="matrix(0.05,0,0,0.05,72.85000000000001,0)" xlink:href="#ax"/><use transform="matrix(0.05,0,0,0.05,82.85000000000001,0)" xlink:href="#ay"/><use transform="matrix(0.05,0,0,0.05,88.80000000000001,0)" xlink:href="#at"/><use transform="matrix(0.05,0,0,0.05,92.75000000000001,0)" xlink:href="#aK"/><use transform="matrix(0.05,0,0,0.05,102.75,0)" xlink:href="#ap"/><use transform="matrix(0.05,0,0,0.05,112.75,0)" xlink:href="#ai"/><use transform="matrix(0.05,0,0,0.05,122.75,0)" xlink:href="#ar"/><use transform="matrix(0.05,0,0,0.05,131.75,0)" xlink:href="#at"/><use transform="matrix(0.05,0,0,0.05,135.7,0)" xlink:href="#aL"/><use transform="matrix(0.05,0,0,0.05,141.64999999999998,0)" xlink:href="#ap"/><use transform="matrix(0.05,0,0,0.05,151.64999999999998,0)" xlink:href="#ai"/><use transform="matrix(0.05,0,0,0.05,161.64999999999998,0)" xlink:href="#ar"/><use transform="matrix(0.05,0,0,0.05,170.64999999999998,0)" xlink:href="#at"/></g><g id="w"><use transform="matrix(0.05,0,0,0.05,0,0)" xlink:href="#aJ"/><use transform="matrix(0.05,0,0,0.05,9,0)" xlink:href="#ax"/><use transform="matrix(0.05,0,0,0.05,19,0)" xlink:href="#ao"/><use transform="matrix(0.05,0,0,0.05,33.95,0)" xlink:href="#aB"/><use transform="matrix(0.05,0,0,0.05,37.900000000000006,0)" xlink:href="#ai"/><use transform="matrix(0.05,0,0,0.05,47.900000000000006,0)" xlink:href="#aF"/><use transform="matrix(0.05,0,0,0.05,57.900000000000006,0)" xlink:href="#ap"/><use transform="matrix(0.05,0,0,0.05,67.9,0)" xlink:href="#ax"/><use transform="matrix(0.05,0,0,0.05,77.9,0)" xlink:href="#aB"/><use transform="matrix(0.05,0,0,0.05,81.85000000000001,0)" xlink:href="#ax"/><use transform="matrix(0.05,0,0,0.05,91.85000000000001,0)" xlink:href="#as"/></g><path fill="#333" d="M140-251c81 0 123 46 123 126C263-46 219 4 140 4 59 4 17-45 17-125s42-126 123-126zm0 227c63 0 89-41 89-101s-29-99-89-99c-61 0-89 39-89 99S79-25 140-24" id="aM"/><g id="x"><use transform="matrix(0.05,0,0,0.05,0,0)" xlink:href="#aJ"/><use transform="matrix(0.05,0,0,0.05,9,0)" xlink:href="#ax"/><use transform="matrix(0.05,0,0,0.05,19,0)" xlink:href="#ao"/><use transform="matrix(0.05,0,0,0.05,33.95,0)" xlink:href="#aB"/><use transform="matrix(0.05,0,0,0.05,37.900000000000006,0)" xlink:href="#ai"/><use transform="matrix(0.05,0,0,0.05,47.900000000000006,0)" xlink:href="#aF"/><use transform="matrix(0.05,0,0,0.05,57.900000000000006,0)" xlink:href="#ah"/><use transform="matrix(0.05,0,0,0.05,70.85000000000001,0)" xlink:href="#ay"/><use transform="matrix(0.05,0,0,0.05,76.80000000000001,0)" xlink:href="#aq"/><use transform="matrix(0.05,0,0,0.05,86.80000000000001,0)" xlink:href="#aC"/><use transform="matrix(0.05,0,0,0.05,96.80000000000001,0)" xlink:href="#aM"/><use transform="matrix(0.05,0,0,0.05,110.80000000000001,0)" xlink:href="#ax"/><use transform="matrix(0.05,0,0,0.05,120.80000000000001,0)" xlink:href="#aj"/></g><path fill="#333" d="M143 4C61 4 22-44 18-125c-5-107 100-154 193-111 17 8 29 25 37 43l-32 9c-13-25-37-40-76-40-61 0-88 39-88 99 0 61 29 100 91 101 35 0 62-11 79-27v-45h-74v-28h105v86C228-13 192 4 143 4" id="aN"/><g id="y"><use transform="matrix(0.05,0,0,0.05,0,0)" xlink:href="#aJ"/><use transform="matrix(0.05,0,0,0.05,9,0)" xlink:href="#ax"/><use transform="matrix(0.05,0,0,0.05,19,0)" xlink:href="#ao"/><use transform="matrix(0.05,0,0,0.05,33.95,0)" xlink:href="#aB"/><use transform="matrix(0.05,0,0,0.05,37.900000000000006,0)" xlink:href="#ai"/><use transform="matrix(0.05,0,0,0.05,47.900000000000006,0)" xlink:href="#aF"/><use transform="matrix(0.05,0,0,0.05,57.900000000000006,0)" xlink:href="#aN"/><use transform="matrix(0.05,0,0,0.05,71.9,0)" xlink:href="#ax"/><use transform="matrix(0.05,0,0,0.05,81.9,0)" xlink:href="#ay"/><use transform="matrix(0.05,0,0,0.05,87.85000000000001,0)" xlink:href="#ax"/></g><path fill="#333" d="M177-190C167-65 218 103 67 71c-23-6-38-20-44-43l32-5c15 47 100 32 89-28v-30C133-14 115 1 83 1 29 1 15-40 15-95c0-56 16-97 71-98 29-1 48 16 59 35 1-10 0-23 2-32h30zM94-22c36 0 50-32 50-73 0-42-14-75-50-75-39 0-46 34-46 75s6 73 46 73" id="aO"/><g id="z"><use transform="matrix(0.05,0,0,0.05,0,0)" xlink:href="#av"/><use transform="matrix(0.05,0,0,0.05,12.950000000000001,0)" xlink:href="#ax"/><use transform="matrix(0.05,0,0,0.05,22.950000000000003,0)" xlink:href="#ai"/><use transform="matrix(0.05,0,0,0.05,32.95,0)" xlink:href="#aD"/><use transform="matrix(0.05,0,0,0.05,42.95,0)" xlink:href="#aO"/><use transform="matrix(0.05,0,0,0.05,52.95,0)" xlink:href="#ai"/><use transform="matrix(0.05,0,0,0.05,62.95,0)" xlink:href="#aD"/><use transform="matrix(0.05,0,0,0.05,72.95,0)" xlink:href="#aI"/><use transform="matrix(0.05,0,0,0.05,84.95,0)" xlink:href="#aA"/><use transform="matrix(0.05,0,0,0.05,94.95,0)" xlink:href="#aB"/><use transform="matrix(0.05,0,0,0.05,98.9,0)" xlink:href="#ai"/><use transform="matrix(0.05,0,0,0.05,108.9,0)" xlink:href="#as"/></g><g id="A"><use transform="matrix(0.05,0,0,0.05,0,0)" xlink:href="#aJ"/><use transform="matrix(0.05,0,0,0.05,9,0)" xlink:href="#ax"/><use transform="matrix(0.05,0,0,0.05,19,0)" xlink:href="#ao"/><use transform="matrix(0.05,0,0,0.05,33.95,0)" xlink:href="#aB"/><use transform="matrix(0.05,0,0,0.05,37.900000000000006,0)" xlink:href="#ai"/><use transform="matrix(0.05,0,0,0.05,47.900000000000006,0)" xlink:href="#aF"/><use transform="matrix(0.05,0,0,0.05,57.900000000000006,0)" xlink:href="#av"/><use transform="matrix(0.05,0,0,0.05,70.85000000000001,0)" xlink:href="#ax"/><use transform="matrix(0.05,0,0,0.05,80.85000000000001,0)" xlink:href="#ai"/><use transform="matrix(0.05,0,0,0.05,90.85000000000001,0)" xlink:href="#aD"/><use transform="matrix(0.05,0,0,0.05,100.85000000000001,0)" xlink:href="#aO"/><use transform="matrix(0.05,0,0,0.05,110.85000000000001,0)" xlink:href="#ai"/><use transform="matrix(0.05,0,0,0.05,120.85000000000001,0)" xlink:href="#aD"/></g><g id="B"><use transform="matrix(0.05,0,0,0.05,0,0)" xlink:href="#aJ"/><use transform="matrix(0.05,0,0,0.05,9,0)" xlink:href="#ax"/><use transform="matrix(0.05,0,0,0.05,19,0)" xlink:href="#ao"/><use transform="matrix(0.05,0,0,0.05,33.95,0)" xlink:href="#aB"/><use transform="matrix(0.05,0,0,0.05,37.900000000000006,0)" xlink:href="#ai"/><use transform="matrix(0.05,0,0,0.05,47.900000000000006,0)" xlink:href="#aF"/><use transform="matrix(0.05,0,0,0.05,57.900000000000006,0)" xlink:href="#al"/><use transform="matrix(0.05,0,0,0.05,72.85000000000001,0)" xlink:href="#ax"/><use transform="matrix(0.05,0,0,0.05,82.85000000000001,0)" xlink:href="#ay"/><use transform="matrix(0.05,0,0,0.05,88.80000000000001,0)" xlink:href="#at"/><use transform="matrix(0.05,0,0,0.05,92.75000000000001,0)" xlink:href="#aK"/><use transform="matrix(0.05,0,0,0.05,102.75,0)" xlink:href="#aw"/><use transform="matrix(0.05,0,0,0.05,114.75,0)" xlink:href="#aA"/><use transform="matrix(0.05,0,0,0.05,124.75,0)" xlink:href="#ay"/><use transform="matrix(0.05,0,0,0.05,130.70000000000002,0)" xlink:href="#av"/><use transform="matrix(0.05,0,0,0.05,143.65,0)" xlink:href="#ax"/><use transform="matrix(0.05,0,0,0.05,153.65,0)" xlink:href="#ai"/><use transform="matrix(0.05,0,0,0.05,163.65,0)" xlink:href="#aD"/><use transform="matrix(0.05,0,0,0.05,173.65,0)" xlink:href="#aO"/><use transform="matrix(0.05,0,0,0.05,183.65,0)" xlink:href="#ai"/><use transform="matrix(0.05,0,0,0.05,193.65,0)" xlink:href="#aD"/></g><path fill="#333" d="M63-220v92h138v28H63V0H30v-248h175v28H63" id="aP"/><g id="C"><use transform="matrix(0.05,0,0,0.05,0,0)" xlink:href="#aP"/><use transform="matrix(0.05,0,0,0.05,10.950000000000001,0)" xlink:href="#ai"/><use transform="matrix(0.05,0,0,0.05,20.950000000000003,0)" xlink:href="#as"/><use transform="matrix(0.05,0,0,0.05,29.950000000000003,0)" xlink:href="#at"/><use transform="matrix(0.05,0,0,0.05,33.900000000000006,0)" xlink:href="#aB"/><use transform="matrix(0.05,0,0,0.05,37.85000000000001,0)" xlink:href="#at"/><use transform="matrix(0.05,0,0,0.05,41.80000000000001,0)" xlink:href="#aj"/><use transform="matrix(0.05,0,0,0.05,46.80000000000001,0)" xlink:href="#ai"/><use transform="matrix(0.05,0,0,0.05,56.80000000000001,0)" xlink:href="#as"/><use transform="matrix(0.05,0,0,0.05,65.80000000000001,0)" xlink:href="#ak"/><use transform="matrix(0.05,0,0,0.05,77.80000000000001,0)" xlink:href="#al"/><use transform="matrix(0.05,0,0,0.05,92.75000000000001,0)" xlink:href="#am"/></g><g id="D"><use transform="matrix(0.05,0,0,0.05,0,0)" xlink:href="#an"/><use transform="matrix(0.05,0,0,0.05,12.950000000000001,0)" xlink:href="#ai"/><use transform="matrix(0.05,0,0,0.05,22.950000000000003,0)" xlink:href="#ao"/><use transform="matrix(0.05,0,0,0.05,37.900000000000006,0)" xlink:href="#ai"/><use transform="matrix(0.05,0,0,0.05,47.900000000000006,0)" xlink:href="#aP"/><use transform="matrix(0.05,0,0,0.05,58.85,0)" xlink:href="#ai"/><use transform="matrix(0.05,0,0,0.05,68.85000000000001,0)" xlink:href="#as"/><use transform="matrix(0.05,0,0,0.05,77.85000000000001,0)" xlink:href="#at"/><use transform="matrix(0.05,0,0,0.05,81.80000000000001,0)" xlink:href="#aB"/><use transform="matrix(0.05,0,0,0.05,85.75000000000001,0)" xlink:href="#at"/><use transform="matrix(0.05,0,0,0.05,89.70000000000002,0)" xlink:href="#aj"/><use transform="matrix(0.05,0,0,0.05,94.70000000000002,0)" xlink:href="#ai"/><use transform="matrix(0.05,0,0,0.05,104.7,0)" xlink:href="#as"/></g><g id="E"><use transform="matrix(0.05,0,0,0.05,0,0)" xlink:href="#aJ"/><use transform="matrix(0.05,0,0,0.05,9,0)" xlink:href="#ax"/><use transform="matrix(0.05,0,0,0.05,19,0)" xlink:href="#ao"/><use transform="matrix(0.05,0,0,0.05,33.95,0)" xlink:href="#aB"/><use transform="matrix(0.05,0,0,0.05,37.900000000000006,0)" xlink:href="#ai"/><use transform="matrix(0.05,0,0,0.05,47.900000000000006,0)" xlink:href="#aF"/><use transform="matrix(0.05,0,0,0.05,57.900000000000006,0)" xlink:href="#aP"/><use transform="matrix(0.05,0,0,0.05,68.85000000000001,0)" xlink:href="#ai"/><use transform="matrix(0.05,0,0,0.05,78.85000000000001,0)" xlink:href="#as"/><use transform="matrix(0.05,0,0,0.05,87.85000000000001,0)" xlink:href="#at"/><use transform="matrix(0.05,0,0,0.05,91.80000000000001,0)" xlink:href="#aB"/><use transform="matrix(0.05,0,0,0.05,95.75000000000001,0)" xlink:href="#at"/><use transform="matrix(0.05,0,0,0.05,99.70000000000002,0)" xlink:href="#aj"/><use transform="matrix(0.05,0,0,0.05,104.7,0)" xlink:href="#ai"/><use transform="matrix(0.05,0,0,0.05,114.7,0)" xlink:href="#as"/></g><g id="F"><use transform="matrix(0.05,0,0,0.05,0,0)" xlink:href="#aJ"/><use transform="matrix(0.05,0,0,0.05,9,0)" xlink:href="#ax"/><use transform="matrix(0.05,0,0,0.05,19,0)" xlink:href="#ay"/><use transform="matrix(0.05,0,0,0.05,24.95,0)" xlink:href="#ax"/><use transform="matrix(0.05,0,0,0.05,34.95,0)" xlink:href="#as"/><use transform="matrix(0.05,0,0,0.05,43.95,0)" xlink:href="#ai"/><use transform="matrix(0.05,0,0,0.05,53.95,0)" xlink:href="#aD"/></g><g id="G"><use transform="matrix(0.05,0,0,0.05,0,0)" xlink:href="#an"/><use transform="matrix(0.05,0,0,0.05,12.950000000000001,0)" xlink:href="#ai"/><use transform="matrix(0.05,0,0,0.05,22.950000000000003,0)" xlink:href="#ao"/><use transform="matrix(0.05,0,0,0.05,37.900000000000006,0)" xlink:href="#ai"/><use transform="matrix(0.05,0,0,0.05,47.900000000000006,0)" xlink:href="#aJ"/><use transform="matrix(0.05,0,0,0.05,56.900000000000006,0)" xlink:href="#ax"/><use transform="matrix(0.05,0,0,0.05,66.9,0)" xlink:href="#ay"/><use transform="matrix(0.05,0,0,0.05,72.85000000000001,0)" xlink:href="#ax"/><use transform="matrix(0.05,0,0,0.05,82.85000000000001,0)" xlink:href="#as"/><use transform="matrix(0.05,0,0,0.05,91.85000000000001,0)" xlink:href="#ai"/><use transform="matrix(0.05,0,0,0.05,101.85000000000001,0)" xlink:href="#aD"/></g><g id="H"><use transform="matrix(0.05,0,0,0.05,0,0)" xlink:href="#aJ"/><use transform="matrix(0.05,0,0,0.05,9,0)" xlink:href="#ax"/><use transform="matrix(0.05,0,0,0.05,19,0)" xlink:href="#ao"/><use transform="matrix(0.05,0,0,0.05,33.95,0)" xlink:href="#aB"/><use transform="matrix(0.05,0,0,0.05,37.900000000000006,0)" xlink:href="#ai"/><use transform="matrix(0.05,0,0,0.05,47.900000000000006,0)" xlink:href="#aF"/><use transform="matrix(0.05,0,0,0.05,57.900000000000006,0)" xlink:href="#aJ"/><use transform="matrix(0.05,0,0,0.05,66.9,0)" xlink:href="#ax"/><use transform="matrix(0.05,0,0,0.05,76.9,0)" xlink:href="#ay"/><use transform="matrix(0.05,0,0,0.05,82.85000000000001,0)" xlink:href="#ax"/><use transform="matrix(0.05,0,0,0.05,92.85000000000001,0)" xlink:href="#as"/><use transform="matrix(0.05,0,0,0.05,101.85000000000001,0)" xlink:href="#ai"/><use transform="matrix(0.05,0,0,0.05,111.85000000000001,0)" xlink:href="#aD"/></g><path fill="#333" d="M160-131c35 5 61 23 61 61C221 17 115-2 30 0v-248c76 3 177-17 177 60 0 33-19 50-47 57zm-97-11c50-1 110 9 110-42 0-47-63-36-110-37v79zm0 115c55-2 124 14 124-45 0-56-70-42-124-44v89" id="aQ"/><path fill="#333" d="M179-190L93 31C79 59 56 82 12 73V49c39 6 53-20 64-50L1-190h34L92-34l54-156h33" id="aR"/><g id="I"><use transform="matrix(0.05,0,0,0.05,0,0)" xlink:href="#aQ"/><use transform="matrix(0.05,0,0,0.05,12,0)" xlink:href="#at"/><use transform="matrix(0.05,0,0,0.05,15.949999999999998,0)" xlink:href="#ai"/><use transform="matrix(0.05,0,0,0.05,25.950000000000003,0)" xlink:href="#aR"/><use transform="matrix(0.05,0,0,0.05,34.95,0)" xlink:href="#ai"/><use transform="matrix(0.05,0,0,0.05,44.95,0)" xlink:href="#aw"/><use transform="matrix(0.05,0,0,0.05,56.95,0)" xlink:href="#aA"/><use transform="matrix(0.05,0,0,0.05,66.95,0)" xlink:href="#aD"/><use transform="matrix(0.05,0,0,0.05,76.95,0)" xlink:href="#aK"/><use transform="matrix(0.05,0,0,0.05,86.95,0)" xlink:href="#at"/><use transform="matrix(0.05,0,0,0.05,90.9,0)" xlink:href="#aK"/><use transform="matrix(0.05,0,0,0.05,100.9,0)" xlink:href="#at"/><use transform="matrix(0.05,0,0,0.05,104.85000000000001,0)" xlink:href="#ar"/><use transform="matrix(0.05,0,0,0.05,113.85000000000001,0)" xlink:href="#ai"/><use transform="matrix(0.05,0,0,0.05,123.85000000000001,0)" xlink:href="#aD"/></g><g id="J"><use transform="matrix(0.05,0,0,0.05,0,0)" xlink:href="#aQ"/><use transform="matrix(0.05,0,0,0.05,12,0)" xlink:href="#at"/><use transform="matrix(0.05,0,0,0.05,15.949999999999998,0)" xlink:href="#ai"/><use transform="matrix(0.05,0,0,0.05,25.950000000000003,0)" xlink:href="#aR"/><use transform="matrix(0.05,0,0,0.05,34.95,0)" xlink:href="#ai"/><use transform="matrix(0.05,0,0,0.05,44.95,0)" xlink:href="#al"/><use transform="matrix(0.05,0,0,0.05,59.900000000000006,0)" xlink:href="#ai"/><use transform="matrix(0.05,0,0,0.05,69.9,0)" xlink:href="#as"/><use transform="matrix(0.05,0,0,0.05,78.9,0)" xlink:href="#ax"/><use transform="matrix(0.05,0,0,0.05,88.9,0)" xlink:href="#ar"/></g><g id="K"><use transform="matrix(0.05,0,0,0.05,0,0)" xlink:href="#aQ"/><use transform="matrix(0.05,0,0,0.05,12,0)" xlink:href="#at"/><use transform="matrix(0.05,0,0,0.05,15.949999999999998,0)" xlink:href="#ai"/><use transform="matrix(0.05,0,0,0.05,25.950000000000003,0)" xlink:href="#aR"/><use transform="matrix(0.05,0,0,0.05,34.95,0)" xlink:href="#ai"/><use transform="matrix(0.05,0,0,0.05,44.95,0)" xlink:href="#aQ"/><use transform="matrix(0.05,0,0,0.05,56.95,0)" xlink:href="#ai"/><use transform="matrix(0.05,0,0,0.05,66.95,0)" xlink:href="#aD"/><use transform="matrix(0.05,0,0,0.05,76.95,0)" xlink:href="#aO"/><use transform="matrix(0.05,0,0,0.05,86.95,0)" xlink:href="#ax"/><use transform="matrix(0.05,0,0,0.05,96.95,0)" xlink:href="#aD"/><use transform="matrix(0.05,0,0,0.05,106.95,0)" xlink:href="#ai"/><use transform="matrix(0.05,0,0,0.05,116.95,0)" xlink:href="#aD"/></g></defs></g></svg>